<svg xmlns="http://www.w3.org/2000/svg" width="36" height="36" viewBox="0 0 36 36">
  <path id="pinterest" d="M18,0A17.9,17.9,0,0,1,36,18,18.2,18.2,0,0,1,18,36a18.79,18.79,0,0,1-5.093-.739q.505-.816,1.011-1.808a21.558,21.558,0,0,0,1.4-4.471q.234-.953.661-2.508a3.916,3.916,0,0,0,1.691,1.555,7.755,7.755,0,0,0,6.667-.272,10.988,10.988,0,0,0,5.054-6.492C31,15.156,28.926,9.282,23.384,6.919c-6.681-2.013-14.138.5-16.736,6.473C5.514,17.384,5.581,22.51,9.525,24.18a.707.707,0,0,0,.564,0,4.532,4.532,0,0,0,.719-2.43,1.466,1.466,0,0,0-.272-.486c-2.18-2.951-.851-7.343,1.186-9.544,3.464-2.975,8.855-3.458,12.032-.622,2.818,3.288,2.178,8.4.369,11.663-1,1.594-2.34,2.8-4.14,2.819a2.807,2.807,0,0,1-2.838-3.46c.413-2.129,1.56-4.388,1.594-6.376-.092-1.654-.92-2.7-2.449-2.721-2.442.308-3.427,2.591-3.46,4.665a7.191,7.191,0,0,0,.583,2.838q-.777,3.149-1.2,5.073c-.437,2.276-1.294,4.657-1.419,6.862q-.058,1.089-.019,2.022A18.167,18.167,0,0,1,0,18,18.1,18.1,0,0,1,18,0Z" fill="#fff"/>
</svg>
