<svg xmlns="http://www.w3.org/2000/svg" width="36" height="30" viewBox="0 0 36 30">
  <path id="twitter" d="M36,6.51a9.675,9.675,0,0,1-1.344,1.926,9.923,9.923,0,0,1-2.428,2.047q.041.321.06.6a21.844,21.844,0,0,1-1.545,8.368,22.035,22.035,0,0,1-8.769,10.9A23.056,23.056,0,0,1,8.248,32.857,15.76,15.76,0,0,1,0,29.667,15.369,15.369,0,0,0,11,26.5c-3.374.085-5.826-2.355-6.983-5.177a4.7,4.7,0,0,0,1.565.08,14.561,14.561,0,0,0,1.766-.241,8.278,8.278,0,0,1-5.017-3.893,8.392,8.392,0,0,1-.843-3.692,7.051,7.051,0,0,0,3.331,1A8.606,8.606,0,0,1,1.545,9.258a9.847,9.847,0,0,1,.9-4.8,25.224,25.224,0,0,0,8.569,6.421,17.75,17.75,0,0,0,6.722,1.4,8.984,8.984,0,0,1,.9-5.7,7.764,7.764,0,0,1,4.635-3.371A6.841,6.841,0,0,1,30.14,5.345a12.216,12.216,0,0,0,4.776-1.766,7.246,7.246,0,0,1-3.291,4.254A20.868,20.868,0,0,0,36,6.509Z" transform="translate(0 -2.999)" fill="#fff"/>
</svg>
